#Comment line ignore any data following # character 
#Hierarchical Translation and Rotation (.htr) file 
[Header]	
#Header keywords are followed by a single value 
FileType HTR		#Single word string
DataType HTRS		#Translation followed by rotation and scale data
FileVersion 1		#integer
NumSegments 84		#integer
NumFrames 2		#integer
DataFrameRate 30		#integer, data frame rate in this file
EulerRotationOrder ZYX
CalibrationUnits mm
RotationUnits Degrees
GlobalAxisofGravity Y
BoneLengthAxis Y
ScaleFactor 1.00
[SegmentNames&Hierarchy]
#CHILD	PARENT
MASTER GLOBAL
root MASTER
chest root
L_mid_tent01 root
R_mid_tent01 root
spine01 root
Bip01_Neck chest
L_humerus chest
R_humerus chest
weapon_bone chest
Bip01_Head Bip01_Neck
eye_left_bone Bip01_Head
eye_right_bone Bip01_Head
L_forearm L_humerus
L_front_hand L_forearm
L_weapon_bone L_forearm
L_front_hand01_01 L_front_hand
L_front_hand02_01 L_front_hand
L_front_hand03_01 L_front_hand
L_front_hand01_02 L_front_hand01_01
L_front_hand02_02 L_front_hand02_01
L_front_hand03_02 L_front_hand03_01
R_forearm R_humerus
R_front_hand R_forearm
R_weapon_bone R_forearm
R_front_hand01_01 R_front_hand
R_front_hand02_01 R_front_hand
R_front_hand03_01 R_front_hand
R_front_hand01_02 R_front_hand01_01
R_front_hand02_02 R_front_hand02_01
R_front_hand03_02 R_front_hand03_01
null_rope01_connect L_mid_tent01
Rope1_Seg01 null_rope01_connect
Rope1_Seg02 Rope1_Seg01
Rope1_Seg03 Rope1_Seg02
Rope1_Seg04 Rope1_Seg03
Rope1_Seg05 Rope1_Seg04
Rope1_Seg06 Rope1_Seg05
Rope1_Seg07 Rope1_Seg06
Rope1_Seg09 Rope1_Seg07
L_mid_hand01 Rope1_Seg09
L_mid_hand02 Rope1_Seg09
L_mid_hand03 Rope1_Seg09
null_rope02_connect R_mid_tent01
Rope2_Seg01 null_rope02_connect
Rope2_Seg02 Rope2_Seg01
Rope2_Seg03 Rope2_Seg02
Rope2_Seg04 Rope2_Seg03
Rope2_Seg05 Rope2_Seg04
Rope2_Seg06 Rope2_Seg05
Rope2_Seg07 Rope2_Seg06
Rope2_Seg09 Rope2_Seg07
R_mid_hand01 Rope2_Seg09
R_mid_hand02 Rope2_Seg09
R_mid_hand03 Rope2_Seg09
spine02 spine01
spine03 spine02
pelvis spine03
null_rope03_connect pelvis
null_rope04_connect pelvis
Rope3_Seg01 null_rope03_connect
Rope3_Seg02 Rope3_Seg01
Rope3_Seg03 Rope3_Seg02
Rope3_Seg04 Rope3_Seg03
Rope3_Seg05 Rope3_Seg04
Rope3_Seg06 Rope3_Seg05
Rope3_Seg07 Rope3_Seg06
Rope3_Seg08 Rope3_Seg07
Rope3_Seg09 Rope3_Seg08
R_rear_hand01 Rope3_Seg09
R_rear_hand02 Rope3_Seg09
R_rear_hand03 Rope3_Seg09
Rope4_Seg01 null_rope04_connect
Rope4_Seg02 Rope4_Seg01
Rope4_Seg03 Rope4_Seg02
Rope4_Seg04 Rope4_Seg03
Rope4_Seg05 Rope4_Seg04
Rope4_Seg06 Rope4_Seg05
Rope4_Seg07 Rope4_Seg06
Rope4_Seg08 Rope4_Seg07
Rope4_Seg09 Rope4_Seg08
L_rear_hand01 Rope4_Seg09
L_rear_hand02 Rope4_Seg09
L_rear_hand03 Rope4_Seg09
[BasePosition]
#SegmentName Tx, Ty, Tz, Rx, Ry, Rz, BoneLength
MASTER 0.000000 0.000000 0.000000 -90.000000 0.000000 0.000000 10.000000 
root 0.000000 0.000000 0.000000 0.000000 0.000000 0.000000 10.000000 
chest 0.000000 0.000000 0.000000 0.000000 0.000000 0.000000 10.000000 
L_mid_tent01 0.000000 0.000000 0.000000 0.000000 0.000000 0.000000 10.000000 
R_mid_tent01 0.000000 0.000000 0.000000 0.000000 0.000000 0.000000 10.000000 
spine01 0.000000 0.000000 0.000000 0.000000 0.000000 0.000000 10.000000 
Bip01_Neck 0.000000 0.000000 0.000000 0.000000 0.000000 0.000000 10.000000 
L_humerus 0.000000 0.000000 0.000000 0.000000 0.000000 0.000000 10.000000 
R_humerus 0.000000 0.000000 0.000000 0.000000 0.000000 0.000000 10.000000 
weapon_bone 0.000000 0.000000 0.000000 0.000000 0.000000 0.000000 10.000000 
Bip01_Head 0.000000 0.000000 0.000000 0.000000 0.000000 0.000000 10.000000 
eye_left_bone 0.000000 0.000000 0.000000 0.000000 0.000000 0.000000 10.000000 
eye_right_bone 0.000000 0.000000 0.000000 0.000000 0.000000 0.000000 10.000000 
L_forearm 0.000000 0.000000 0.000000 0.000000 0.000000 0.000000 10.000000 
L_front_hand 0.000000 0.000000 0.000000 0.000000 0.000000 0.000000 10.000000 
L_weapon_bone 0.000000 0.000000 0.000000 0.000000 0.000000 0.000000 10.000000 
L_front_hand01_01 0.000000 0.000000 0.000000 0.000000 0.000000 0.000000 10.000000 
L_front_hand02_01 0.000000 0.000000 0.000000 0.000000 0.000000 0.000000 10.000000 
L_front_hand03_01 0.000000 0.000000 0.000000 0.000000 0.000000 0.000000 10.000000 
L_front_hand01_02 0.000000 0.000000 0.000000 0.000000 0.000000 0.000000 10.000000 
L_front_hand02_02 0.000000 0.000000 0.000000 0.000000 0.000000 0.000000 10.000000 
L_front_hand03_02 0.000000 0.000000 0.000000 0.000000 0.000000 0.000000 10.000000 
R_forearm 0.000000 0.000000 0.000000 0.000000 0.000000 0.000000 10.000000 
R_front_hand 0.000000 0.000000 0.000000 0.000000 0.000000 0.000000 10.000000 
R_weapon_bone 0.000000 0.000000 0.000000 0.000000 0.000000 0.000000 10.000000 
R_front_hand01_01 0.000000 0.000000 0.000000 0.000000 0.000000 0.000000 10.000000 
R_front_hand02_01 0.000000 0.000000 0.000000 0.000000 0.000000 0.000000 10.000000 
R_front_hand03_01 0.000000 0.000000 0.000000 0.000000 0.000000 0.000000 10.000000 
R_front_hand01_02 0.000000 0.000000 0.000000 0.000000 0.000000 0.000000 10.000000 
R_front_hand02_02 0.000000 0.000000 0.000000 0.000000 0.000000 0.000000 10.000000 
R_front_hand03_02 0.000000 0.000000 0.000000 0.000000 0.000000 0.000000 10.000000 
null_rope01_connect 0.000000 0.000000 0.000000 0.000000 0.000000 0.000000 10.000000 
Rope1_Seg01 0.000000 0.000000 0.000000 0.000000 0.000000 0.000000 10.000000 
Rope1_Seg02 0.000000 0.000000 0.000000 0.000000 0.000000 0.000000 10.000000 
Rope1_Seg03 0.000000 0.000000 0.000000 0.000000 0.000000 0.000000 10.000000 
Rope1_Seg04 0.000000 0.000000 0.000000 0.000000 0.000000 0.000000 10.000000 
Rope1_Seg05 0.000000 0.000000 0.000000 0.000000 0.000000 0.000000 10.000000 
Rope1_Seg06 0.000000 0.000000 0.000000 0.000000 0.000000 0.000000 10.000000 
Rope1_Seg07 0.000000 0.000000 0.000000 0.000000 0.000000 0.000000 10.000000 
Rope1_Seg09 0.000000 0.000000 0.000000 0.000000 0.000000 0.000000 10.000000 
L_mid_hand01 0.000000 0.000000 0.000000 0.000000 0.000000 0.000000 10.000000 
L_mid_hand02 0.000000 0.000000 0.000000 0.000000 0.000000 0.000000 10.000000 
L_mid_hand03 0.000000 0.000000 0.000000 0.000000 0.000000 0.000000 10.000000 
null_rope02_connect 0.000000 0.000000 0.000000 0.000000 0.000000 0.000000 10.000000 
Rope2_Seg01 0.000000 0.000000 0.000000 0.000000 0.000000 0.000000 10.000000 
Rope2_Seg02 0.000000 0.000000 0.000000 0.000000 0.000000 0.000000 10.000000 
Rope2_Seg03 0.000000 0.000000 0.000000 0.000000 0.000000 0.000000 10.000000 
Rope2_Seg04 0.000000 0.000000 0.000000 0.000000 0.000000 0.000000 10.000000 
Rope2_Seg05 0.000000 0.000000 0.000000 0.000000 0.000000 0.000000 10.000000 
Rope2_Seg06 0.000000 0.000000 0.000000 0.000000 0.000000 0.000000 10.000000 
Rope2_Seg07 0.000000 0.000000 0.000000 0.000000 0.000000 0.000000 10.000000 
Rope2_Seg09 0.000000 0.000000 0.000000 0.000000 0.000000 0.000000 10.000000 
R_mid_hand01 0.000000 0.000000 0.000000 0.000000 0.000000 0.000000 10.000000 
R_mid_hand02 0.000000 0.000000 0.000000 0.000000 0.000000 0.000000 10.000000 
R_mid_hand03 0.000000 0.000000 0.000000 0.000000 0.000000 0.000000 10.000000 
spine02 0.000000 0.000000 0.000000 0.000000 0.000000 0.000000 10.000000 
spine03 0.000000 0.000000 0.000000 0.000000 0.000000 0.000000 10.000000 
pelvis 0.000000 0.000000 0.000000 0.000000 0.000000 0.000000 10.000000 
null_rope03_connect 0.000000 0.000000 0.000000 0.000000 0.000000 0.000000 10.000000 
null_rope04_connect 0.000000 0.000000 0.000000 0.000000 0.000000 0.000000 10.000000 
Rope3_Seg01 0.000000 0.000000 0.000000 0.000000 0.000000 0.000000 10.000000 
Rope3_Seg02 0.000000 0.000000 0.000000 0.000000 0.000000 0.000000 10.000000 
Rope3_Seg03 0.000000 0.000000 0.000000 0.000000 0.000000 0.000000 10.000000 
Rope3_Seg04 0.000000 0.000000 0.000000 0.000000 0.000000 0.000000 10.000000 
Rope3_Seg05 0.000000 0.000000 0.000000 0.000000 0.000000 0.000000 10.000000 
Rope3_Seg06 0.000000 0.000000 0.000000 0.000000 0.000000 0.000000 10.000000 
Rope3_Seg07 0.000000 0.000000 0.000000 0.000000 0.000000 0.000000 10.000000 
Rope3_Seg08 0.000000 0.000000 0.000000 0.000000 0.000000 0.000000 10.000000 
Rope3_Seg09 0.000000 0.000000 0.000000 0.000000 0.000000 0.000000 10.000000 
R_rear_hand01 0.000000 0.000000 0.000000 0.000000 0.000000 0.000000 10.000000 
R_rear_hand02 0.000000 0.000000 0.000000 0.000000 0.000000 0.000000 10.000000 
R_rear_hand03 0.000000 0.000000 0.000000 0.000000 0.000000 0.000000 10.000000 
Rope4_Seg01 0.000000 0.000000 0.000000 0.000000 0.000000 0.000000 10.000000 
Rope4_Seg02 0.000000 0.000000 0.000000 0.000000 0.000000 0.000000 10.000000 
Rope4_Seg03 0.000000 0.000000 0.000000 0.000000 0.000000 0.000000 10.000000 
Rope4_Seg04 0.000000 0.000000 0.000000 0.000000 0.000000 0.000000 10.000000 
Rope4_Seg05 0.000000 0.000000 0.000000 0.000000 0.000000 0.000000 10.000000 
Rope4_Seg06 0.000000 0.000000 0.000000 0.000000 0.000000 0.000000 10.000000 
Rope4_Seg07 0.000000 0.000000 0.000000 0.000000 0.000000 0.000000 10.000000 
Rope4_Seg08 0.000000 0.000000 0.000000 0.000000 0.000000 0.000000 10.000000 
Rope4_Seg09 0.000000 0.000000 0.000000 0.000000 0.000000 0.000000 10.000000 
L_rear_hand01 0.000000 0.000000 0.000000 0.000000 0.000000 0.000000 10.000000 
L_rear_hand02 0.000000 0.000000 0.000000 0.000000 0.000000 0.000000 10.000000 
L_rear_hand03 0.000000 0.000000 0.000000 0.000000 0.000000 0.000000 10.000000 
#Beginning of Data. Separated by tabs
#Fr	Tx	Ty	Tz	Rx	Ry	Rz	SF
[MASTER]
5 82.966881 949.147766 1197.879761 0.001660 0.001660 0.001660 1530.581909
6 101.598373 1257.602051 1521.998901 0.001660 0.001660 0.001660 1976.958740
[root]
5 6.805171 -78.343048 1377.362549 -82.294106 -16.087696 -96.655533 1379.605469
6 23.469856 -78.814758 1308.662109 -75.499634 -16.607513 -99.120621 1311.243286
[chest]
5 -84.512650 -34.090519 0.000000 -1.043208 -10.296495 -175.795013 91.129311
6 -84.512650 -34.090519 0.000000 1.317354 -11.877005 -173.840103 91.129311
[L_mid_tent01]
5 27.299051 22.179258 -249.918686 0.144508 8.492355 70.418304 252.381668
6 27.299046 22.179258 -249.918686 -0.478570 12.791245 69.451340 252.381668
[R_mid_tent01]
5 23.228794 24.509907 226.238495 167.538315 -21.049809 71.927292 228.744751
6 23.228794 24.509907 226.238495 169.680267 -23.333866 66.515968 228.744751
[spine01]
5 -0.361383 -0.195265 0.000000 0.001918 0.001353 19.592878 0.410763
6 -0.361383 -0.195265 0.000000 0.001910 0.001365 18.908493 0.410763
[Bip01_Neck]
5 165.484543 71.581718 0.000119 176.643677 -1.657967 43.431911 180.302734
6 165.484543 71.581718 0.000119 176.643677 -1.657967 43.431911 180.302734
[L_humerus]
5 -13.983130 -135.272980 -120.471481 -0.115614 71.589188 89.901428 181.680161
6 -13.983130 -135.272980 -120.471481 3.066625 73.476624 93.115898 181.680161
[R_humerus]
5 -13.983309 -135.273102 125.287651 37.768436 -81.226761 57.632542 184.909012
6 -13.983309 -135.273102 125.287651 61.797081 -85.856216 33.500389 184.909012
[weapon_bone]
5 235.964890 -300.705902 0.000000 0.000000 -89.951546 -128.212341 382.234833
6 235.964890 -300.705902 0.000000 0.000000 -89.951546 -128.212341 382.234833
[Bip01_Head]
5 213.470459 185.642548 12.720146 11.457410 4.547332 -43.860878 283.186493
6 213.553314 185.411942 15.697274 13.131672 2.886093 -43.870060 283.247284
[eye_left_bone]
5 -24.626970 125.451866 -64.772606 0.000000 -90.000000 -99.840431 143.318359
6 -24.626970 125.451866 -64.772606 0.000000 -90.000000 -99.840431 143.318359
[eye_right_bone]
5 -24.626970 125.451866 64.327362 0.000000 -89.965736 80.156380 143.117676
6 -24.626970 125.451866 64.327362 0.000000 -89.965736 80.156380 143.117676
[L_forearm]
5 322.776093 0.000000 -0.000119 0.000409 -0.002311 -110.054802 322.776093
6 322.776093 0.000000 -0.000119 0.000412 -0.002311 -110.199730 322.776093
[L_front_hand]
5 241.149185 -0.042021 -3.300071 -178.667953 -1.835447 -27.422350 241.171753
6 241.149185 -0.042021 -3.300071 -178.667953 -1.835447 -27.422350 241.171753
[L_weapon_bone]
5 156.183838 0.000000 0.000000 0.000014 0.000007 0.000001 156.183838
6 156.183838 0.000000 0.000000 0.000014 0.000007 0.000001 156.183838
[L_front_hand01_01]
5 86.095154 20.947098 -0.655860 -0.351864 -0.488251 73.756912 88.609184
6 86.095154 20.947098 -0.655860 -0.340755 -0.496208 72.096481 88.609184
[L_front_hand02_01]
5 86.935165 -11.437475 24.513514 151.937775 -59.151119 -58.507736 91.046425
6 86.935165 -11.437475 24.513514 149.544266 -58.335350 -55.710854 91.046425
[L_front_hand03_01]
5 86.637497 -14.123976 -20.424902 -151.626480 57.374607 -59.999687 90.126129
6 86.637497 -14.123976 -20.424902 -149.397461 56.551064 -57.336918 90.126129
[L_front_hand01_02]
5 71.020905 -0.000179 0.000030 0.000317 -0.002326 -105.531021 71.020905
6 71.020905 -0.000179 0.000030 0.000316 -0.002326 -105.493759 71.020905
[L_front_hand02_02]
5 71.020927 -0.000119 0.000060 0.000317 -0.002326 -105.531021 71.020927
6 71.020927 -0.000119 0.000060 0.000316 -0.002326 -105.493759 71.020927
[L_front_hand03_02]
5 71.020905 -0.000060 0.000060 0.000317 -0.002326 -105.531021 71.020905
6 71.020905 -0.000060 0.000060 0.000316 -0.002326 -105.493759 71.020905
[R_forearm]
5 322.776428 -0.000060 0.000030 0.201733 0.066293 -108.707085 322.776428
6 322.776428 -0.000060 0.000030 0.201654 0.066536 -108.844978 322.776428
[R_front_hand]
5 238.847015 -0.006795 2.210259 -2.635298 -10.645461 -26.312506 238.857239
6 238.847015 -0.006795 2.210259 -2.635298 -10.645461 -26.312506 238.857239
[R_weapon_bone]
5 155.664093 0.002503 -0.000030 0.003487 0.001180 -90.988930 155.664078
6 155.664093 0.002503 -0.000030 0.003487 0.001180 -90.988930 155.664078
[R_front_hand01_01]
5 87.624611 14.231146 22.918642 -152.176025 -59.222912 58.891888 91.683487
6 87.624611 14.231146 22.918642 -149.707169 -58.394505 56.007458 91.683487
[R_front_hand02_01]
5 89.356956 14.367283 -19.491137 152.293427 57.581059 61.021759 92.579636
6 89.356956 14.367283 -19.491137 149.983444 56.758789 58.275921 92.579636
[R_front_hand03_01]
5 87.286232 -22.307278 -0.143439 0.152228 -0.428396 -74.153709 90.091743
6 87.286232 -22.307278 -0.143439 0.134949 -0.432464 -72.452232 90.091743
[R_front_hand01_02]
5 71.020905 0.000060 0.000119 0.002323 -0.000334 106.381714 71.020905
6 71.020905 0.000060 0.000119 0.002323 -0.000334 106.381714 71.020905
[R_front_hand02_02]
5 71.020844 -0.000030 -0.000119 0.002323 -0.000334 106.381714 71.020836
6 71.020844 -0.000030 -0.000119 0.002323 -0.000334 106.381714 71.020836
[R_front_hand03_02]
5 71.020905 0.000000 0.000030 0.002323 -0.000334 106.381714 71.020905
6 71.020905 0.000000 0.000030 0.002323 -0.000334 106.381714 71.020905
[null_rope01_connect]
5 328.732483 0.000000 -0.000238 -86.586815 -80.397842 122.100792 328.732483
6 328.732483 0.000000 -0.000238 -74.511948 -77.251816 111.376076 328.732483
[Rope1_Seg01]
5 0.000038 -0.000106 0.000000 2.945817 69.071815 -170.288605 0.000112
6 0.000038 -0.000123 0.000000 -8.390565 70.270668 177.207001 0.000128
[Rope1_Seg02]
5 139.999863 -0.000179 0.000000 0.943712 5.634942 -13.935897 139.999863
6 139.999863 -0.000179 0.000000 -0.203132 8.266109 -11.760632 139.999863
[Rope1_Seg03]
5 139.999924 0.000060 -0.000060 4.769774 3.130053 -15.519727 139.999924
6 139.999924 0.000060 -0.000060 1.540494 7.541653 -13.081368 139.999924
[Rope1_Seg04]
5 139.999924 -0.000060 -0.000119 11.061344 -3.878423 -13.087694 139.999924
6 139.999924 -0.000060 -0.000119 8.334805 1.375143 -11.896387 139.999924
[Rope1_Seg05]
5 139.999832 0.000119 -0.000060 -3.320553 13.955829 -14.908997 139.999832
6 139.999832 0.000119 -0.000060 -5.575133 11.744534 -10.494970 139.999832
[Rope1_Seg06]
5 139.999954 0.000119 -0.000060 -79.479187 21.830973 -13.421644 139.999954
6 139.999954 0.000119 -0.000060 -80.537651 21.115017 -8.174204 139.999954
[Rope1_Seg07]
5 139.999985 0.000060 0.000000 -51.293438 7.514637 6.828884 139.999985
6 139.999985 0.000060 0.000000 -39.774578 6.712190 10.036930 139.999985
[Rope1_Seg09]
5 121.602913 0.000119 -0.000089 -89.793175 -1.359789 0.847147 121.602913
6 121.602913 0.000119 -0.000089 -89.793175 -1.359789 0.847147 121.602913
[L_mid_hand01]
5 103.859421 1.038730 8.195221 118.511871 -58.710987 -25.432119 104.187431
6 103.859421 1.038730 8.195221 115.405022 -54.702576 -21.718946 104.187431
[L_mid_hand02]
5 105.572853 -4.139662 -10.864139 -159.626373 40.490181 -59.638344 106.211075
6 105.572853 -4.139662 -10.864139 -156.173538 38.796768 -54.226353 106.211075
[L_mid_hand03]
5 104.641464 17.579376 -3.913581 -9.285491 16.381809 63.801434 106.179977
6 104.641464 17.579376 -3.913581 -10.557028 15.605442 59.191399 106.179977
[null_rope02_connect]
5 328.732849 0.000179 -0.000119 -132.923767 65.346283 8.309528 328.732849
6 328.732849 0.000179 -0.000119 -140.944077 59.790848 -7.607730 328.732849
[Rope2_Seg01]
5 0.000093 0.000038 0.000000 39.099705 35.039734 -29.701645 0.000101
6 0.000093 0.000019 0.000000 62.096889 6.763991 -22.133959 0.000095
[Rope2_Seg02]
5 139.999741 -0.000060 -0.000119 -0.418811 22.077299 -7.477279 139.999756
6 139.999741 -0.000060 -0.000119 -6.580949 18.918442 -14.439162 139.999756
[Rope2_Seg03]
5 140.000107 0.000030 0.000000 -1.367834 18.581440 -8.418313 140.000107
6 140.000107 0.000030 0.000000 -4.123459 16.662931 -13.634691 140.000107
[Rope2_Seg04]
5 139.999802 0.000000 -0.000060 -2.972049 23.216215 -6.444885 139.999802
6 139.999802 0.000000 -0.000060 -2.194466 22.495014 -11.010698 139.999802
[Rope2_Seg05]
5 139.999985 -0.000060 0.000119 -8.253814 22.396578 -2.923936 139.999985
6 139.999985 -0.000060 0.000119 -4.534547 28.107525 -9.498513 139.999985
[Rope2_Seg06]
5 139.999893 -0.000030 -0.000119 -6.340267 8.900350 -0.114693 139.999893
6 139.999893 -0.000030 -0.000119 -2.285986 11.177387 -3.308975 139.999893
[Rope2_Seg07]
5 139.999893 0.000060 -0.000060 -4.932998 4.634311 0.411312 139.999893
6 139.999893 0.000060 -0.000060 -1.493381 5.406028 -1.460289 139.999893
[Rope2_Seg09]
5 121.338966 0.000089 -0.000060 33.793236 -1.359788 -0.847141 121.338966
6 121.338966 0.000089 -0.000060 33.793236 -1.359788 -0.847141 121.338966
[R_mid_hand01]
5 104.680779 11.144459 -10.335981 -20.898426 43.633060 63.773407 105.778534
6 104.680779 11.144459 -10.335981 -22.984863 42.734234 60.718655 105.778534
[R_mid_hand02]
5 104.070427 2.443552 8.231699 55.882156 -63.749565 31.819658 104.424065
6 104.070427 2.443552 8.231699 58.419525 -61.729706 28.969120 104.424065
[R_mid_hand03]
5 106.028137 -11.221827 -5.996406 -175.717163 15.237030 -71.372292 106.788818
6 106.028137 -11.221827 -5.996406 -175.069138 15.041784 -68.893349 106.788818
[spine02]
5 129.756927 0.001550 0.000119 0.422507 -4.038156 -13.848994 129.756927
6 129.756927 0.001550 0.000119 0.435576 -4.036676 -14.033954 129.756927
[spine03]
5 78.614037 0.081643 -4.899000 1.934276 3.812294 17.047590 78.766571
6 78.614021 0.081645 -4.899000 1.943035 3.807837 17.171246 78.766556
[pelvis]
5 169.435242 0.051022 0.000000 0.479275 -0.299019 13.483945 169.435257
6 169.435242 0.051022 0.000000 0.757362 -0.354498 13.154407 169.435257
[null_rope03_connect]
5 -1.257226 -2.466202 137.391083 -25.320061 -79.899673 95.642036 137.418976
6 -1.257226 -2.466202 137.391083 -16.082397 -73.442108 88.709282 137.418976
[null_rope04_connect]
5 -1.259640 -2.480268 -137.844437 -25.320061 -79.899673 95.642036 137.872513
6 -1.259640 -2.480268 -137.844437 -16.082397 -73.442108 88.709282 137.872513
[Rope3_Seg01]
5 0.000000 0.000000 0.000000 11.635725 12.989322 -99.594582 0.000000
6 0.000000 0.000000 0.000000 13.534068 8.473197 -97.314339 0.000000
[Rope3_Seg02]
5 139.999924 -0.000119 0.000060 1.254700 -9.765045 24.800917 139.999924
6 139.999924 -0.000119 0.000060 -1.404364 -14.882170 34.557228 139.999924
[Rope3_Seg03]
5 139.999924 -0.000119 0.000119 -24.796373 -20.994280 56.533794 139.999924
6 139.999924 -0.000119 0.000119 -29.221601 -22.528557 55.044033 139.999924
[Rope3_Seg04]
5 139.999924 0.000119 0.000000 -14.395529 -11.946668 18.847317 139.999924
6 139.999924 0.000119 0.000000 -9.692525 -10.028574 11.932207 139.999924
[Rope3_Seg05]
5 139.999924 -0.000238 0.000060 -23.645767 -4.385225 29.548113 139.999924
6 139.999924 -0.000238 0.000060 -11.781296 -7.468329 15.572290 139.999924
[Rope3_Seg06]
5 139.999893 -0.000119 -0.000060 -59.350014 -18.467661 35.515518 139.999893
6 139.999893 -0.000119 -0.000060 -29.175426 -14.940931 25.482365 139.999893
[Rope3_Seg07]
5 139.999771 0.000060 -0.000119 -12.801962 -15.615378 0.749689 139.999771
6 139.999771 0.000060 -0.000119 -15.280044 -13.991669 8.048453 139.999771
[Rope3_Seg08]
5 139.999985 -0.000060 0.000000 -3.182310 -6.545415 -1.159338 139.999985
6 139.999985 -0.000060 0.000000 -5.471949 -7.440194 1.895915 139.999985
[Rope3_Seg09]
5 90.185997 -0.000179 -0.000060 89.793228 -1.359877 -0.847183 90.185997
6 90.185997 -0.000179 -0.000060 89.793228 -1.359877 -0.847183 90.185997
[R_rear_hand01]
5 103.366196 -6.073594 -10.757982 -174.893967 24.166164 -67.090828 104.101845
6 103.366196 -6.073594 -10.757982 -173.599045 23.870514 -63.902164 104.101845
[R_rear_hand02]
5 100.509819 12.039542 -7.992327 -17.255272 35.248016 64.724976 101.543350
6 100.509819 12.039542 -7.992327 -19.192892 34.332623 61.336498 101.543350
[R_rear_hand03]
5 101.539970 5.215704 5.435467 75.989647 -65.836792 16.686356 101.819031
6 101.539970 5.215704 5.435467 77.403587 -62.983585 15.125125 101.819031
[Rope4_Seg01]
5 0.000008 -0.000106 -0.000153 -103.166679 12.870483 -127.491943 0.000186
6 0.000008 -0.000123 -0.000153 -102.411278 11.283359 -128.516861 0.000196
[Rope4_Seg02]
5 139.999985 0.000060 0.000119 -1.534735 1.768216 4.035136 139.999985
6 139.999985 0.000060 0.000119 -2.033150 3.675423 5.758963 139.999985
[Rope4_Seg03]
5 139.999924 0.000000 -0.000238 -2.285110 2.043382 5.043610 139.999924
6 139.999924 0.000000 -0.000238 -3.544573 4.311903 7.380127 139.999924
[Rope4_Seg04]
5 139.999985 0.000000 0.000119 -3.149124 -1.218729 4.415065 139.999985
6 139.999985 0.000000 0.000119 -5.203383 1.555844 6.906629 139.999985
[Rope4_Seg05]
5 139.999802 -0.000060 -0.000119 -5.338346 4.291817 9.404685 139.999802
6 139.999802 -0.000060 -0.000119 -9.997884 4.993576 11.502461 139.999802
[Rope4_Seg06]
5 139.999924 0.000000 0.000060 -13.477340 13.360523 17.068800 139.999924
6 139.999924 0.000000 0.000060 -33.411186 9.894502 21.436920 139.999924
[Rope4_Seg07]
5 139.999802 0.000000 0.000000 -21.907322 4.965988 12.051136 139.999802
6 139.999802 0.000000 0.000000 -36.920086 -2.592871 15.656940 139.999802
[Rope4_Seg08]
5 139.999924 0.000000 0.000119 -18.719322 -0.186746 6.647528 139.999924
6 139.999924 0.000000 0.000119 -14.945550 -5.557427 5.066872 139.999924
[Rope4_Seg09]
5 90.185791 0.000060 0.000060 -135.617828 2.228885 0.850567 90.185791
6 90.185791 0.000060 0.000060 -135.617828 2.228885 0.850567 90.185791
[L_rear_hand01]
5 101.696655 -8.392275 -7.654577 -25.776871 -29.993465 130.987762 102.329041
6 101.696655 -8.392275 -7.654577 -28.953402 -26.963970 137.645660 102.329041
[L_rear_hand02]
5 102.726799 -1.568258 5.773216 80.757904 51.892082 168.841858 102.900848
6 102.726799 -1.568258 5.773216 81.888351 45.378387 170.342453 102.900848
[L_rear_hand03]
5 104.552910 9.721220 -10.420293 -168.841812 -22.136347 -128.226929 105.519653
6 104.552910 9.721220 -10.420293 -166.314163 -20.719036 -135.138702 105.519653
